<svg width="138" height="138" viewBox="0 0 138 138" fill="none" xmlns="http://www.w3.org/2000/svg">
<path d="M76.2962 112.125L53.6178 120.211L52.758 123.216C51.5371 127.494 46.8984 130.992 42.4512 130.992H87.4629L76.2962 112.125Z" fill="#ADACA7"/>
<path d="M85.242 123.216L82.0723 112.125L69 104.039L55.9277 112.125L53.6179 120.211H76.2962L77.156 123.216C78.377 127.494 83.0156 130.992 87.4629 130.992H95.5488C91.1016 130.992 86.4629 127.494 85.242 123.216Z" fill="#8F8F8B"/>
<path d="M119.807 112.125H127.893C132.34 112.125 135.979 108.486 135.979 104.039V87.8672L119.807 71.6953V112.125Z" fill="#ADACA7"/>
<path d="M2.02148 104.039C2.02148 108.486 5.66016 112.125 10.1074 112.125H119.807C124.254 112.125 127.893 108.486 127.893 104.039V55.5234L2.02148 87.8672V104.039Z" fill="#CBC9C2"/>
<path d="M127.893 7.00781H119.807L127.893 87.8672H135.979V15.0938C135.979 10.6465 132.34 7.00781 127.893 7.00781Z" fill="#404242"/>
<path d="M127.893 15.0938C127.893 10.6465 124.254 7.00781 119.807 7.00781H10.1074C5.66016 7.00781 2.02148 10.6465 2.02148 15.0938V87.8672H127.893V79.7812L69 47.434L127.893 15.0938Z" fill="#565959"/>
<path d="M127.893 15.0925L119.808 15.0868C119.808 15.0881 69 47.434 69 47.434C69 47.434 119.807 79.7808 119.807 79.7813L127.892 79.7759C127.893 79.7759 127.892 15.0935 127.893 15.0925Z" fill="#4B88D5"/>
<path d="M119.807 15.0924L10.1311 15.0864C10.1244 15.0897 10.1187 79.7799 10.1074 79.7812C10.1074 79.7812 119.801 79.7758 119.804 79.7758C119.805 79.7758 119.795 15.0934 119.807 15.0924Z" fill="#69A7FF"/>
<path d="M69 104.039C71.2329 104.039 73.043 102.229 73.043 99.9961C73.043 97.7632 71.2329 95.9531 69 95.9531C66.7671 95.9531 64.957 97.7632 64.957 99.9961C64.957 102.229 66.7671 104.039 69 104.039Z" fill="white"/>
<path d="M127.893 4.98633H10.1074C4.53405 4.98633 0 9.52038 0 15.0938V104.039C0 109.612 4.53405 114.146 10.1074 114.146H53.2478L50.8147 122.662C49.8377 126.082 46.0076 128.971 42.4512 128.971H27.2227C26.1063 128.971 25.2012 129.876 25.2012 130.992C25.2012 132.109 26.1063 133.014 27.2227 133.014H110.777C111.894 133.014 112.799 132.109 112.799 130.992C112.799 129.876 111.894 128.971 110.777 128.971H95.5488C91.9924 128.971 88.1623 126.082 87.1853 122.662L84.7522 114.146H127.893C133.466 114.146 138 109.612 138 104.039V15.0938C138 9.52038 133.466 4.98633 127.893 4.98633ZM10.1074 9.0293H127.893C131.237 9.0293 133.957 11.7499 133.957 15.0938V85.8457H4.04297V15.0938C4.04297 11.7499 6.76335 9.0293 10.1074 9.0293ZM83.2978 123.773C83.8525 125.715 84.9552 127.499 86.4007 128.971H51.5993C53.0448 127.499 54.1475 125.714 54.7022 123.773L57.4525 114.146H80.5473L83.2978 123.773ZM127.893 110.104H10.1074C6.76335 110.104 4.04297 107.383 4.04297 104.039V89.8887H133.957V104.039C133.957 107.383 131.237 110.104 127.893 110.104Z" fill="black"/>
<path d="M10.1074 81.8027H127.893C129.009 81.8027 129.914 80.8979 129.914 79.7812V15.0938C129.914 13.9771 129.009 13.0723 127.893 13.0723H10.1074C8.99102 13.0723 8.08594 13.9771 8.08594 15.0938V43.3945C8.08594 44.5112 8.99102 45.416 10.1074 45.416C11.2238 45.416 12.1289 44.5112 12.1289 43.3945V17.1152H125.871V77.7598H12.1289V51.4805C12.1289 50.3638 11.2238 49.459 10.1074 49.459C8.99102 49.459 8.08594 50.3638 8.08594 51.4805V79.7812C8.08594 80.8979 8.99102 81.8027 10.1074 81.8027Z" fill="black"/>
<path d="M69 93.9316C65.6559 93.9316 62.9355 96.6523 62.9355 99.9961C62.9355 103.34 65.6559 106.061 69 106.061C72.3441 106.061 75.0645 103.34 75.0645 99.9961C75.0645 96.6523 72.3441 93.9316 69 93.9316ZM69 102.018C67.8852 102.018 66.9785 101.111 66.9785 99.9961C66.9785 98.8813 67.8852 97.9746 69 97.9746C70.1148 97.9746 71.0215 98.8813 71.0215 99.9961C71.0215 101.111 70.1148 102.018 69 102.018Z" fill="black"/>
</svg>
